<?xml version="1.0" encoding="UTF-8"?>
<svg 
  viewBox="0 0 100 100" 
  width="512"
  height="512"
  xmlns="http://www.w3.org/2000/svg"
>
  <defs>
    <!-- Glossy metallic border bezel gradient -->
    <linearGradient id="bezelGrad" x1="0%" y1="0%" x2="100%" y2="100%">
      <stop offset="0%" stop-color="#0891b2" />
      <stop offset="30%" stop-color="#22d3ee" />
      <stop offset="50%" stop-color="#0284c7" />
      <stop offset="75%" stop-color="#0369a1" />
      <stop offset="100%" stop-color="#0f172a" />
    </linearGradient>

    <!-- Dark background inside the logo disc -->
    <radialGradient id="bgGrad" cx="50%" cy="50%" r="50%">
      <stop offset="0%" stop-color="#051622" />
      <stop offset="70%" stop-color="#02080c" />
      <stop offset="100%" stop-color="#000205" />
    </radialGradient>

    <!-- Bright cyan front-facing parts of the 3D emblem -->
    <linearGradient id="cyanFront" x1="0%" y1="0%" x2="100%" y2="100%">
      <stop offset="0%" stop-color="#00ffff" />
      <stop offset="100%" stop-color="#00b8d4" />
    </linearGradient>

    <!-- Deep dark shaded parts of the 3D emblem fold -->
    <linearGradient id="cyanShadow" x1="0%" y1="0%" x2="100%" y2="100%">
      <stop offset="0%" stop-color="#004d61" />
      <stop offset="100%" stop-color="#001a24" />
    </linearGradient>

    <!-- Glow and shadow filter for the inner emblem -->
    <filter id="emblemGlow" x="-20%" y="-20%" width="140%" height="140%">
      <feDropShadow dx="0" dy="0" stdDeviation="3" flood-color="#00ffff" flood-opacity="0.5" />
    </filter>
  </defs>

  <!-- Background circular disc -->
  <circle cx="50" cy="50" r="47" fill="url(#bgGrad)" />

  <!-- Outer glossy metallic ring bezel -->
  <circle cx="50" cy="50" r="47" stroke="url(#bezelGrad)" stroke-width="2.5" fill="none" />
  <circle cx="50" cy="50" r="45.5" stroke="#00ffff" stroke-width="0.5" stroke-opacity="0.2" fill="none" />

  <!-- Inner ambient shadow circle -->
  <circle cx="50" cy="50" r="44" stroke="#000000" stroke-width="1.5" stroke-opacity="0.6" fill="none" />

  <!-- The 3D Emblem Symbol -->
  <g filter="url(#emblemGlow)">
    <!-- 1. Top Bar (Trapezoid, bright cyan) -->
    <polygon 
      points="36,28 58,28 47,39 36,39" 
      fill="url(#cyanFront)" 
    />

    <!-- 2. Top Shadow Fold (Diamond, dark blue/cyan shadow) -->
    <polygon 
      points="58,28 68,39 58,50 47,39" 
      fill="url(#cyanShadow)" 
    />

    <!-- 3. Middle Bar (Hexagon, bright cyan) -->
    <polygon 
      points="47,39 58,39 67,50 58,61 47,61 38,50" 
      fill="url(#cyanFront)" 
    />

    <!-- 4. Bottom Shadow Fold (Diamond, dark blue/cyan shadow) -->
    <polygon 
      points="47,61 58,61 47,72 36,61" 
      fill="url(#cyanShadow)" 
    />

    <!-- 5. Bottom Bar (Trapezoid, bright cyan) -->
    <polygon 
      points="36,61 47,61 58,72 36,72" 
      fill="url(#cyanFront)" 
    />
  </g>
</svg>